{
	"asset":{
		"generator":"Khronos glTF Blender I/O v4.5.48",
		"version":"2.0"
	},
	"scene":0,
	"scenes":[
		{
			"name":"Scene",
			"nodes":[
				0
			]
		}
	],
	"nodes":[
		{
			"mesh":0,
			"name":"simple_triangle",
			"rotation":[
				0,
				0,
				0.7071067094802856,
				0.7071068286895752
			]
		}
	],
	"meshes":[
		{
			"name":"simple_triangle",
			"primitives":[
				{
					"attributes":{
						"POSITION":0
					},
					"indices":1
				}
			]
		}
	],
	"accessors":[
		{
			"bufferView":0,
			"componentType":5126,
			"count":3,
			"max":[
				1,
				0,
				0
			],
			"min":[
				0,
				-1,
				0
			],
			"type":"VEC3"
		},
		{
			"bufferView":1,
			"componentType":5123,
			"count":3,
			"type":"SCALAR"
		}
	],
	"bufferViews":[
		{
			"buffer":0,
			"byteLength":36,
			"byteOffset":0,
			"target":34962
		},
		{
			"buffer":0,
			"byteLength":6,
			"byteOffset":36,
			"target":34963
		}
	],
	"buffers":[
		{
			"byteLength":44,
			"uri":"simple_triangle.bin"
		}
	]
}
