<?xml version="1.0" encoding="UTF-8"?>
<svg xmlns="http://www.w3.org/2000/svg" viewBox="0 0 512 512">
  <polygon points="411.24731620415946,217.29249670405318 450.05914525519927,207.61562088006644 450.05914525519927,304.38437911993356 411.24731620415946,294.7075032959468" stroke="white" stroke-width="32" fill="none" stroke-linejoin="round"/>
  <polygon points="393.146768112338,338.40609198560867 427.4334601404224,359.00761498201086 359.00761498201086,427.4334601404224 338.40609198560867,393.146768112338" stroke="white" stroke-width="32" fill="none" stroke-linejoin="round"/>
  <polygon points="294.7075032959468,411.24731620415946 304.38437911993356,450.05914525519927 207.61562088006644,450.05914525519927 217.29249670405315,411.24731620415946" stroke="white" stroke-width="32" fill="none" stroke-linejoin="round"/>
  <polygon points="173.59390801439133,393.146768112338 152.99238501798914,427.4334601404224 84.56653985957755,359.00761498201086 118.85323188766205,338.40609198560867" stroke="white" stroke-width="32" fill="none" stroke-linejoin="round"/>
  <polygon points="100.75268379584057,294.7075032959468 61.9408547448007,304.38437911993356 61.9408547448007,207.6156208800665 100.75268379584057,217.2924967040532" stroke="white" stroke-width="32" fill="none" stroke-linejoin="round"/>
  <polygon points="118.85323188766202,173.59390801439133 84.56653985957755,152.99238501798916 152.9923850179891,84.56653985957757 173.59390801439127,118.85323188766205" stroke="white" stroke-width="32" fill="none" stroke-linejoin="round"/>
  <polygon points="217.29249670405315,100.75268379584057 207.61562088006644,61.9408547448007 304.3843791199335,61.940854744800674 294.7075032959468,100.75268379584054" stroke="white" stroke-width="32" fill="none" stroke-linejoin="round"/>
  <polygon points="338.40609198560867,118.85323188766202 359.00761498201086,84.56653985957755 427.4334601404224,152.9923850179891 393.14676811233795,173.59390801439127" stroke="white" stroke-width="32" fill="none" stroke-linejoin="round"/>
  <ellipse cx="256.0" cy="256.0" rx="160.0" ry="160.0" fill="none" stroke="white" stroke-width="32"/>
  <ellipse cx="256.0" cy="256.0" rx="70.0" ry="70.0" fill="none" stroke="white" stroke-width="32"/>
</svg>
