<?xml version="1.0" encoding="UTF-8" standalone="no"?>
<svg width="512" height="512" viewBox="0 0 135.46667 135.46667" version="1.1" xmlns="http://www.w3.org/2000/svg">
  <defs>
    <mask id="ext-mask" maskUnits="userSpaceOnUse" x="29" y="82" width="74" height="32">
      <rect x="29" y="82" width="74" height="32" fill="#ffffff"/>
      <text x="66" y="108" text-anchor="middle"
            style="font-family:Sans;font-weight:bold;font-size:26px;fill:#000000">CPP</text>
    </mask>
  </defs>
  <g>
    <path style="fill:none;stroke:#ffffff;stroke-width:5.29167;stroke-linejoin:round"
       d="m 29.104167,104.97538 0,-73.166903 a 9.318893,9.318893 135 0 1 9.318893,-9.318893 h 42.934942 a 10.142992,10.142992 24.54281 0 1 7.664948,3.500037 l 10.178112,11.743976 a 16.317072,16.317072 69.54281 0 1 3.986438,10.686548 v 52.843475 a 12.507221,12.507221 135 0 1 -12.507221,12.50722 l -52.780648,0 a 8.7954639,8.7954639 45 0 1 -8.795464,-8.79546 z" />
    <path style="fill:none;stroke:#ffffff;stroke-width:5.29167;stroke-linejoin:round"
       d="m 85.989585,22.489584 v 13.720044 a 6.1237062,6.1237062 45 0 0 6.123706,6.123706 H 103.1875" />
    <!-- Hexagon (C++ logo silhouette) with amber "++" accent -->
    <path style="fill:none;stroke:#ffffff;stroke-width:3;stroke-linejoin:round"
       d="M 60 42 L 78 52 L 78 68 L 60 78 L 42 68 L 42 52 Z" />
    <!-- '+' signs stacked in amber -->
    <path style="fill:none;stroke:#ff00ff;stroke-width:3;stroke-linecap:round"
       d="M 56 56 V 64 M 52 60 H 60 M 66 56 V 64 M 62 60 H 70" />
    <path style="fill:#ffffff;stroke:none" mask="url(#ext-mask)"
       d="M 29.104167 82.020835 L 29.104167 106.48704 A 7.2837718 7.2837718 0 0 0 36.387961 113.77084 L 93.286298 113.77084 A 9.9013225 9.9013225 0 0 0 103.1875 103.86963 L 103.1875 82.020835 L 29.104167 82.020835 z" />
  </g>
</svg>
