<?xml version="1.0" encoding="UTF-8" standalone="no"?>
<svg
   width="512"
   height="512"
   viewBox="0 0 135.46667 135.46667"
   version="1.1"
   id="svg1"
   xmlns:inkscape="http://www.inkscape.org/namespaces/inkscape"
   xmlns:sodipodi="http://sodipodi.sourceforge.net/DTD/sodipodi-0.dtd"
   xmlns="http://www.w3.org/2000/svg"
   xmlns:svg="http://www.w3.org/2000/svg">
  <defs id="defs1">
    <inkscape:path-effect
       effect="fillet_chamfer"
       id="path-effect4"
       is_visible="true"
       lpeversion="1"
       nodesatellites_param="F,0,0,1,0,0,0,1 @ F,0,0,1,0,6.1237062,0,1 @ F,0,0,1,0,0,0,1"
       radius="0"
       unit="px"
       method="auto"
       mode="F"
       chamfer_steps="1"
       flexible="false"
       use_knot_distance="true"
       apply_no_radius="true"
       apply_with_radius="true"
       only_selected="false"
       hide_knots="false" />
    <inkscape:path-effect
       effect="fillet_chamfer"
       id="path-effect3"
       is_visible="true"
       lpeversion="1"
       nodesatellites_param="F,0,0,1,0,8.7954639,0,1 @ F,0,0,1,0,9.318893,0,1 @ F,0,0,1,0,4.6315833,0,1 @ F,0,0,1,0,6.0868111,0,1 @ F,0,0,1,0,12.507221,0,1"
       radius="0"
       unit="px"
       method="auto"
       mode="F"
       chamfer_steps="1"
       flexible="false"
       use_knot_distance="true"
       apply_no_radius="true"
       apply_with_radius="true"
       only_selected="false"
       hide_knots="false" />
  </defs>
  <g
     inkscape:label="Calque 1"
     inkscape:groupmode="layer"
     id="layer1">
    <!-- Official Lua logo paths taken verbatim from Wikimedia's Lua-Logo.svg (PD).  The original
         947×947 artwork is scaled into the file-icon paper area (40,42)→(80,82) via a transform
         group.  Colors are remapped to the theme: navy (#000080) → primary (#ffffff),
         white (#FFFFFF) → accent (#ff00ff).  Stroke/dash values are pre-multiplied so they
         remain visible after the 0.0422 downscale. -->
    <g transform="translate(40 34) scale(0.0422)">
      <!-- Planet -->
      <path fill="#ffffff" d="M835.5,473.6c0-199.8-162.2-362-362-362s-362,162.2-362,362c0,199.8,162.2,362,362,362S835.5,673.4,835.5,473.6"/>
      <!-- "Lua" text inside the planet (three glyph paths) -->
      <path fill="#ff00ff" d="M258.1,627.8h117.3v26.7H227.8V417h30.3V627.8z"/>
      <path fill="#ff00ff" d="M515.5,654.5v-23.8c-16,22.5-31.9,31.3-57,31.3c-33.2,0-54.4-18.2-54.4-46.6V483.8h27v120.9c0,20.5,13.7,33.6,35.2,33.6c28.3,0,46.6-22.8,46.6-57.7v-96.8h27v170.7H515.5z"/>
      <path fill="#ff00ff" fill-rule="evenodd" d="M738.4,659.1c-8.8,2.3-13,2.9-18.6,2.9c-17.6,0-26.1-7.8-28-25.1c-19.2,17.6-36.5,25.1-58,25.1c-34.5,0-56-19.5-56-50.5c0-22.2,10.1-37.5,30-45.6c10.4-4.2,16.3-5.5,54.7-10.4c21.5-2.6,28.3-7.5,28.3-18.9v-7.2c0-16.3-13.7-25.4-38.1-25.4c-25.4,0-37.8,9.4-40.1,30.3h-27.4c0.7-16.9,3.9-26.7,11.7-35.5c11.4-12.7,31.9-19.9,56.7-19.9c42,0,64.2,16.3,64.2,46.6v100.4c0,8.5,5.2,13.4,14.7,13.4c1.6,0,2.9,0,5.9-0.7V659.1z M690.8,570.1c-9.1,4.2-15,5.5-43.7,9.4c-29,4.2-41.1,13.4-41.1,31.3c0,17.3,12.4,27.4,33.6,27.4c16,0,29.3-5.2,40.4-15.3c8.1-7.5,10.8-13,10.8-22.2V570.1z"/>
      <!-- Small satellite dot (outside the planet, upper-right) -->
      <path fill="#ffffff" d="M941.5,111.5c0-58.5-47.5-106-106-106s-106,47.5-106,106c0,58.5,47.5,106,106,106S941.5,170.1,941.5,111.5"/>
      <!-- Dashed orbit ring — stroke-width and dasharray pre-multiplied so they remain ~2.5 px
           after the outer transform (scale 0.0422) -->
      <path fill="none" stroke="#ffffff" stroke-width="60" stroke-miterlimit="10" stroke-dasharray="70"
            d="M890.6,261c33.5,65.8,51,138.6,51,212.5c0,258.4-209.7,468.1-468.1,468.1S5.4,731.9,5.4,473.5C5.4,215.1,215.1,5.4,473.5,5.4c83.1,0,164.6,22.1,236.2,63.9"/>
    </g>
    <path
       style="fill:none;stroke:#ffffff;stroke-width:5.29167;stroke-linejoin:round;stroke-dasharray:none;stroke-opacity:1"
       d="m 29.104167,104.97538 0,-73.166903 a 9.318893,9.318893 135 0 1 9.318893,-9.318893 h 42.934942 a 10.142992,10.142992 24.54281 0 1 7.664948,3.500037 l 10.178112,11.743976 a 16.317072,16.317072 69.54281 0 1 3.986438,10.686548 v 52.843475 a 12.507221,12.507221 135 0 1 -12.507221,12.50722 l -52.780648,0 a 8.7954639,8.7954639 45 0 1 -8.795464,-8.79546 z"
       id="path2"
       inkscape:path-effect="#path-effect3"
       inkscape:original-d="M 29.104167,113.77084 V 22.489584 h 56.885418 l 17.197915,19.84375 v 71.437506 z"
       sodipodi:nodetypes="cccccc" />
    <path
       style="fill:none;stroke:#ffffff;stroke-width:5.29167;stroke-linejoin:round;stroke-dasharray:none;stroke-opacity:1"
       d="m 85.989585,22.489584 v 13.720044 a 6.1237062,6.1237062 45 0 0 6.123706,6.123706 H 103.1875"
       id="path3"
       sodipodi:nodetypes="ccc"
       inkscape:path-effect="#path-effect4"
       inkscape:original-d="m 85.989585,22.489584 v 19.84375 H 103.1875" />
    <path
       id="path10"
       style="fill:#ffffff;fill-opacity:1;stroke:none;stroke-width:2.11667;stroke-linecap:round;stroke-linejoin:round;stroke-dasharray:none;stroke-opacity:1;paint-order:stroke fill markers"
       d="M 29.104167 82.020835 L 29.104167 106.48704 A 7.2837718 7.2837718 0 0 0 36.387961 113.77084 L 93.286298 113.77084 A 9.9013225 9.9013225 0 0 0 103.1875 103.86963 L 103.1875 82.020835 L 29.104167 82.020835 z M 37.5 87.63548 L 42.25 87.63548 L 42.25 101.98 L 53.0 101.98 L 53.0 105.48659 L 37.5 105.48659 L 37.5 87.63548 z M 56.5 87.63548 L 61.25 87.63548 L 61.25 99.0 C 61.25 100.8 61.75 102.1 62.75 102.9 C 63.75 103.7 65.0 104.1 66.5 104.1 C 68.0 104.1 69.25 103.7 70.25 102.9 C 71.25 102.1 71.75 100.8 71.75 99.0 L 71.75 87.63548 L 76.5 87.63548 L 76.5 99.5 C 76.5 102.4 75.65 104.6 73.95 106.1 C 72.25 107.6 69.75 108.35 66.5 108.35 C 63.25 108.35 60.75 107.6 59.05 106.1 C 57.35 104.6 56.5 102.4 56.5 99.5 L 56.5 87.63548 z M 80.0 105.48659 L 87.25 87.63548 L 92.25 87.63548 L 99.5 105.48659 L 94.5 105.48659 L 93.0 101.48 L 86.5 101.48 L 85.0 105.48659 L 80.0 105.48659 z M 87.75 98.0 L 91.75 98.0 L 89.75 92.5 L 87.75 98.0 z " />
  </g>
</svg>
