<?xml version="1.0" encoding="UTF-8" standalone="no"?>
<svg
   width="512"
   height="512"
   viewBox="0 0 135.46667 135.46667"
   version="1.1"
   xmlns="http://www.w3.org/2000/svg">
  <!-- Document outline (matches the other browser icons) -->
  <path
     style="fill:none;stroke:#ffffff;stroke-width:5.29167;stroke-linejoin:round"
     d="m 29.104167,104.97538 0,-73.166903 a 9.318893,9.318893 0 0 1 9.318893,-9.318893 h 42.934942 a 10.142992,10.142992 0 0 1 7.664948,3.500037 l 10.178112,11.743976 a 16.317072,16.317072 0 0 1 3.986438,10.686548 v 52.843475 a 12.507221,12.507221 0 0 1 -12.507221,12.50722 l -52.780648,0 a 8.7954639,8.7954639 0 0 1 -8.795464,-8.79546 z" />
  <path
     style="fill:none;stroke:#ffffff;stroke-width:5.29167;stroke-linejoin:round"
     d="m 85.989585,22.489584 v 13.720044 a 6.1237062,6.1237062 0 0 0 6.123706,6.123706 H 103.1875" />
  <!-- Filmstrip body: outer rectangle -->
  <rect x="34" y="50" width="65" height="32" rx="3"
     style="fill:none;stroke:#ffffff;stroke-width:3;stroke-linejoin:round" />
  <!-- Filmstrip perforations top -->
  <rect x="38" y="52" width="5" height="3" style="fill:#ffffff" />
  <rect x="48" y="52" width="5" height="3" style="fill:#ffffff" />
  <rect x="58" y="52" width="5" height="3" style="fill:#ffffff" />
  <rect x="68" y="52" width="5" height="3" style="fill:#ffffff" />
  <rect x="78" y="52" width="5" height="3" style="fill:#ffffff" />
  <rect x="88" y="52" width="5" height="3" style="fill:#ffffff" />
  <!-- Filmstrip perforations bottom -->
  <rect x="38" y="77" width="5" height="3" style="fill:#ffffff" />
  <rect x="48" y="77" width="5" height="3" style="fill:#ffffff" />
  <rect x="58" y="77" width="5" height="3" style="fill:#ffffff" />
  <rect x="68" y="77" width="5" height="3" style="fill:#ffffff" />
  <rect x="78" y="77" width="5" height="3" style="fill:#ffffff" />
  <rect x="88" y="77" width="5" height="3" style="fill:#ffffff" />
  <!-- Frame dividers (3 panels) -->
  <line x1="55" y1="58" x2="55" y2="74" style="stroke:#ffffff;stroke-width:1.4" />
  <line x1="76" y1="58" x2="76" y2="74" style="stroke:#ffffff;stroke-width:1.4" />
  <!-- Play triangle in the middle frame, accent color -->
  <path d="M 62 62 L 62 74 L 73 68 Z" style="fill:#ff00ff;stroke:none" />
  <!-- Bottom label area: three small rectangles suggesting a timeline -->
  <rect x="34" y="89" width="65" height="3" rx="1" style="fill:#ffffff;fill-opacity:0.6" />
  <rect x="34" y="95" width="40" height="3" rx="1" style="fill:#ff00ff" />
  <rect x="34" y="101" width="55" height="3" rx="1" style="fill:#ffffff;fill-opacity:0.4" />
</svg>
