<?xml version="1.0" encoding="UTF-8" standalone="no"?>
<svg
   width="512"
   height="512"
   viewBox="0 0 135.46667 135.46667"
   version="1.1"
   xmlns="http://www.w3.org/2000/svg">
  <!-- Document outline (matches the other browser icons) -->
  <path
     style="fill:none;stroke:#ffffff;stroke-width:5.29167;stroke-linejoin:round"
     d="m 29.104167,104.97538 0,-73.166903 a 9.318893,9.318893 0 0 1 9.318893,-9.318893 h 42.934942 a 10.142992,10.142992 0 0 1 7.664948,3.500037 l 10.178112,11.743976 a 16.317072,16.317072 0 0 1 3.986438,10.686548 v 52.843475 a 12.507221,12.507221 0 0 1 -12.507221,12.50722 l -52.780648,0 a 8.7954639,8.7954639 0 0 1 -8.795464,-8.79546 z" />
  <path
     style="fill:none;stroke:#ffffff;stroke-width:5.29167;stroke-linejoin:round"
     d="m 85.989585,22.489584 v 13.720044 a 6.1237062,6.1237062 0 0 0 6.123706,6.123706 H 103.1875" />
  <!-- Tile grid: 4 columns x 3 rows of 14x14 tiles starting at (37, 52) -->
  <!-- Row 0 -->
  <rect x="37" y="52" width="14" height="14" rx="1.5" style="fill:none;stroke:#ffffff;stroke-width:1.6" />
  <rect x="53" y="52" width="14" height="14" rx="1.5" style="fill:#ff00ff;stroke:none" />
  <rect x="69" y="52" width="14" height="14" rx="1.5" style="fill:none;stroke:#ffffff;stroke-width:1.6" />
  <rect x="85" y="52" width="14" height="14" rx="1.5" style="fill:none;stroke:#ffffff;stroke-width:1.6" />
  <!-- Row 1 -->
  <rect x="37" y="68" width="14" height="14" rx="1.5" style="fill:none;stroke:#ffffff;stroke-width:1.6" />
  <rect x="53" y="68" width="14" height="14" rx="1.5" style="fill:none;stroke:#ffffff;stroke-width:1.6" />
  <rect x="69" y="68" width="14" height="14" rx="1.5" style="fill:#ff00ff;stroke:none" />
  <rect x="85" y="68" width="14" height="14" rx="1.5" style="fill:none;stroke:#ffffff;stroke-width:1.6" />
  <!-- Row 2 -->
  <rect x="37" y="84" width="14" height="14" rx="1.5" style="fill:none;stroke:#ffffff;stroke-width:1.6" />
  <rect x="53" y="84" width="14" height="14" rx="1.5" style="fill:none;stroke:#ffffff;stroke-width:1.6" />
  <rect x="69" y="84" width="14" height="14" rx="1.5" style="fill:none;stroke:#ffffff;stroke-width:1.6" />
  <rect x="85" y="84" width="14" height="14" rx="1.5" style="fill:#ff00ff;stroke:none" />
  <!-- Bottom label hint -->
  <rect x="37" y="103" width="62" height="3" rx="1" style="fill:#ffffff;fill-opacity:0.6" />
</svg>
