<?xml version="1.0" encoding="UTF-8" standalone="no"?>
<svg
   width="512"
   height="512"
   viewBox="0 0 135.46667 135.46667"
   version="1.1"
   xmlns="http://www.w3.org/2000/svg">
  <!-- Document outline (matches the other browser icons) -->
  <path
     style="fill:none;stroke:#ffffff;stroke-width:5.29167;stroke-linejoin:round"
     d="m 29.104167,104.97538 0,-73.166903 a 9.318893,9.318893 0 0 1 9.318893,-9.318893 h 42.934942 a 10.142992,10.142992 0 0 1 7.664948,3.500037 l 10.178112,11.743976 a 16.317072,16.317072 0 0 1 3.986438,10.686548 v 52.843475 a 12.507221,12.507221 0 0 1 -12.507221,12.50722 l -52.780648,0 a 8.7954639,8.7954639 0 0 1 -8.795464,-8.79546 z" />
  <path
     style="fill:none;stroke:#ffffff;stroke-width:5.29167;stroke-linejoin:round"
     d="m 85.989585,22.489584 v 13.720044 a 6.1237062,6.1237062 0 0 0 6.123706,6.123706 H 103.1875" />
  <!-- Painted tilemap: 5x4 grid of 12x12 cells starting at (37.5, 50) — distinguishes
       a level layout from the raw tileset icon (which shows isolated tile slots). -->
  <rect x="37.5" y="50" width="12" height="12" style="fill:#ff00ff;stroke:none" />
  <rect x="49.5" y="50" width="12" height="12" style="fill:#ffffff;fill-opacity:0.55;stroke:none" />
  <rect x="61.5" y="50" width="12" height="12" style="fill:#ff00ff;stroke:none" />
  <rect x="73.5" y="50" width="12" height="12" style="fill:#ffffff;fill-opacity:0.55;stroke:none" />
  <rect x="85.5" y="50" width="12" height="12" style="fill:#ff00ff;stroke:none" />

  <rect x="37.5" y="62" width="12" height="12" style="fill:#ffffff;fill-opacity:0.25;stroke:none" />
  <rect x="49.5" y="62" width="12" height="12" style="fill:#ff00ff;stroke:none" />
  <rect x="61.5" y="62" width="12" height="12" style="fill:#ffffff;fill-opacity:0.55;stroke:none" />
  <rect x="73.5" y="62" width="12" height="12" style="fill:#ff00ff;stroke:none" />
  <rect x="85.5" y="62" width="12" height="12" style="fill:#ffffff;fill-opacity:0.25;stroke:none" />

  <rect x="37.5" y="74" width="12" height="12" style="fill:#ffffff;fill-opacity:0.55;stroke:none" />
  <rect x="49.5" y="74" width="12" height="12" style="fill:#ffffff;fill-opacity:0.25;stroke:none" />
  <rect x="61.5" y="74" width="12" height="12" style="fill:#ff00ff;stroke:none" />
  <rect x="73.5" y="74" width="12" height="12" style="fill:#ffffff;fill-opacity:0.25;stroke:none" />
  <rect x="85.5" y="74" width="12" height="12" style="fill:#ffffff;fill-opacity:0.55;stroke:none" />

  <rect x="37.5" y="86" width="12" height="12" style="fill:#ff00ff;stroke:none" />
  <rect x="49.5" y="86" width="12" height="12" style="fill:#ff00ff;stroke:none" />
  <rect x="61.5" y="86" width="12" height="12" style="fill:#ff00ff;stroke:none" />
  <rect x="73.5" y="86" width="12" height="12" style="fill:#ff00ff;stroke:none" />
  <rect x="85.5" y="86" width="12" height="12" style="fill:#ff00ff;stroke:none" />

  <!-- Grid overlay -->
  <g style="fill:none;stroke:#ffffff;stroke-width:0.6;stroke-opacity:0.6">
    <line x1="49.5" y1="50" x2="49.5" y2="98" />
    <line x1="61.5" y1="50" x2="61.5" y2="98" />
    <line x1="73.5" y1="50" x2="73.5" y2="98" />
    <line x1="85.5" y1="50" x2="85.5" y2="98" />
    <line x1="37.5" y1="62" x2="97.5" y2="62" />
    <line x1="37.5" y1="74" x2="97.5" y2="74" />
    <line x1="37.5" y1="86" x2="97.5" y2="86" />
    <rect x="37.5" y="50" width="60" height="48" />
  </g>
</svg>
