<?xml version="1.0" encoding="UTF-8" standalone="no"?>
<svg width="512" height="512" viewBox="0 0 135.46667 135.46667" version="1.1" xmlns="http://www.w3.org/2000/svg">
  <defs>
    <mask id="ext-mask" maskUnits="userSpaceOnUse" x="29" y="82" width="74" height="32">
      <rect x="29" y="82" width="74" height="32" fill="#ffffff"/>
      <text x="66" y="108" text-anchor="middle"
            style="font-family:Sans;font-weight:bold;font-size:26px;fill:#000000">PY</text>
    </mask>
  </defs>
  <g>
    <path style="fill:none;stroke:#ffffff;stroke-width:5.29167;stroke-linejoin:round"
       d="m 29.104167,104.97538 0,-73.166903 a 9.318893,9.318893 135 0 1 9.318893,-9.318893 h 42.934942 a 10.142992,10.142992 24.54281 0 1 7.664948,3.500037 l 10.178112,11.743976 a 16.317072,16.317072 69.54281 0 1 3.986438,10.686548 v 52.843475 a 12.507221,12.507221 135 0 1 -12.507221,12.50722 l -52.780648,0 a 8.7954639,8.7954639 45 0 1 -8.795464,-8.79546 z" />
    <path style="fill:none;stroke:#ffffff;stroke-width:5.29167;stroke-linejoin:round"
       d="m 85.989585,22.489584 v 13.720044 a 6.1237062,6.1237062 45 0 0 6.123706,6.123706 H 103.1875" />
    <!-- Official Python logo: two interlocking snakes with their eye cut-outs.
         Paths are taken verbatim from Wikimedia's Python-logo-notext.svg (CC-BY) and placed
         inside a transform group that scales/centres them into the file-icon paper area.
         Colors are remapped to the theme: blue → primary (#ffffff), yellow → accent (#ff00ff).
         `fill-rule="evenodd"` makes the inner circle sub-paths cut holes for the eyes. -->
    <g transform="translate(40 34) scale(0.3636)" fill-rule="evenodd">
      <path fill="#ffffff" d="M55.023-0.077c-25.971,0-26.25,10.081-26.25,12.156c0,3.148,0,12.594,0,12.594h26.75v3.781c0,0-27.852,0-37.375,0c-7.949,0-17.938,4.833-17.938,26.25c0,19.673,7.792,27.281,15.656,27.281c2.335,0,9.344,0,9.344,0s0-9.765,0-13.125c0-5.491,2.721-15.656,15.406-15.656c15.91,0,19.971,0,26.531,0c3.902,0,14.906-1.696,14.906-14.406c0-13.452,0-17.89,0-24.219C82.054,11.426,81.515-0.077,55.023-0.077z M40.273,8.392c2.662,0,4.813,2.15,4.813,4.813c0,2.661-2.151,4.813-4.813,4.813s-4.813-2.151-4.813-4.813C35.46,10.542,37.611,8.392,40.273,8.392z"/>
      <path fill="#ff00ff" d="M55.397,109.923c25.959,0,26.282-10.271,26.282-12.156c0-3.148,0-12.594,0-12.594H54.897v-3.781c0,0,28.032,0,37.375,0c8.009,0,17.938-4.954,17.938-26.25c0-23.322-10.538-27.281-15.656-27.281c-2.336,0-9.344,0-9.344,0s0,10.216,0,13.125c0,5.491-2.631,15.656-15.406,15.656c-15.91,0-19.476,0-26.532,0c-3.892,0-14.906,1.896-14.906,14.406c0,14.475,0,18.265,0,24.219C28.366,100.497,31.562,109.923,55.397,109.923z M70.148,101.454c-2.662,0-4.813-2.151-4.813-4.813s2.15-4.813,4.813-4.813c2.661,0,4.813,2.151,4.813,4.813S72.809,101.454,70.148,101.454z"/>
    </g>
    <path style="fill:#ffffff;stroke:none" mask="url(#ext-mask)"
       d="M 29.104167 82.020835 L 29.104167 106.48704 A 7.2837718 7.2837718 0 0 0 36.387961 113.77084 L 93.286298 113.77084 A 9.9013225 9.9013225 0 0 0 103.1875 103.86963 L 103.1875 82.020835 L 29.104167 82.020835 z" />
  </g>
</svg>
