<?xml version="1.0" encoding="UTF-8"?>
<svg xmlns="http://www.w3.org/2000/svg" viewBox="0 0 512 512">
  <!-- Hand/pointer -->
  <path d="M 200,380 L 200,200 C 200,180 220,160 240,160 C 260,160 280,180 280,200 L 280,260
           C 290,250 310,245 320,255 L 320,270
           C 330,260 350,255 360,265 L 360,280
           C 370,270 390,265 400,275 L 400,370
           C 400,430 360,470 300,470 L 250,470
           C 220,470 200,450 200,420 Z"
        stroke="white" stroke-width="22" fill="none" stroke-linejoin="round"/>
  <!-- Key hint: E -->
  <rect x="115" y="55" width="90" height="90" rx="14" stroke="white" stroke-width="26" fill="none"/>
  <!-- Filled E letter (paths, no text element) - three horizontal bars + vertical spine -->
  <rect x="138" y="76" width="12" height="48" fill="white"/>
  <rect x="138" y="76" width="38" height="12" fill="white"/>
  <rect x="138" y="94" width="30" height="10" fill="white"/>
  <rect x="138" y="112" width="38" height="12" fill="white"/>
</svg>
